<svg viewBox="0 0 256 256" xmlns="http://www.w3.org/2000/svg"><path fill="none" d="M0 0h256v256H0z"></path><path d="M48.8 96a8 8 0 0 1-7.8-9.7C47.4 55.5 83.9 32 128 32s80.6 23.5 87 54.3a8 8 0 0 1-7.8 9.7ZM208 168v16a32 32 0 0 1-32 32H80a32 32 0 0 1-32-32v-16" fill="none" stroke="#bc261a" stroke-linecap="round" stroke-linejoin="round" stroke-width="16" class="stroke-000000"></path><path fill="none" stroke="#bc261a" stroke-linecap="round" stroke-linejoin="round" stroke-width="16" d="m28 176 40-16 40 16 40-16 40 16 40-16M24 128h208" class="stroke-000000"></path></svg>